<svg id="icons" enable-background="new 0 0 64 64" height="20" viewBox="0 0 64 64" width="20" xmlns="http://www.w3.org/2000/svg"><path d="m55 54.5h3v3h-3z" fill="#fff"/><path d="m48 54.5h3v3h-3z" fill="#fff"/><path d="m20 40.5h3v3h-3z" fill="#fff"/><path d="m13 40.5h3v3h-3z" fill="#fff"/><path d="m27 47.5h3v3h-3z" fill="#fff"/><path d="m48 40.5h3v3h-3z" fill="#fff"/><path d="m6 40.5h3v3h-3z" fill="#fff"/><path d="m6 47.5h10v3h-10z" fill="#fff"/><path d="m41 40.5h3v3h-3z" fill="#fff"/><path d="m20 54.5h24v3h-24z" fill="#fff"/><path d="m41 47.5h3v3h-3z" fill="#fff"/><path d="m48 47.5h3v3h-3z" fill="#fff"/><path d="m6 54.5h3v3h-3z" fill="#fff"/><path d="m27 40.5h3v3h-3z" fill="#fff"/><path d="m55 40.5h3v10h-3z" fill="#fff"/><path d="m34 47.5h3v3h-3z" fill="#fff"/><path d="m13 54.5h3v3h-3z" fill="#fff"/><path d="m20 47.5h3v3h-3z" fill="#fff"/><path d="m34 40.5h3v3h-3z" fill="#fff"/><path d="m63 35.5v27h-62v-27h31zm-5 22v-3h-3v3zm0-7v-10h-3v10zm-7 7v-3h-3v3zm0-7v-3h-3v3zm0-7v-3h-3v3zm-7 14v-3h-24v3zm0-7v-3h-3v3zm0-7v-3h-3v3zm-7 7v-3h-3v3zm0-7v-3h-3v3zm-7 7v-3h-3v3zm0-7v-3h-3v3zm-7 7v-3h-3v3zm0-7v-3h-3v3zm-7 14v-3h-3v3zm0-7v-3h-10v3zm0-7v-3h-3v3zm-7 14v-3h-3v3zm0-14v-3h-3v3z" fill="#d7e9ff"/><path d="m31.99 16.5c1.109 0 2 .9 2 2 0 1.11-.891 2-2 2-1.101 0-2-.89-2-2 0-1.1.9-2 2-2z" fill="#94c1ff"/><path d="m32 13.5c2.92 0 5.49 1.99 7 5-1.51 3.02-4.08 5.01-7 5.01s-5.49-1.99-7-5.01c1.51-3.01 4.08-5 7-5zm1.99 5c0-1.1-.891-2-2-2-1.101 0-2 .9-2 2 0 1.11.899 2 2 2 1.11 0 2-.89 2-2z" fill="#fff"/><path d="m32 8.5c5.521 0 10 4.48 10 10 0 5.53-4.479 10-10 10-5.53 0-10-4.47-10-10 0-5.52 4.47-10 10-10zm7 10c-1.51-3.01-4.08-5-7-5s-5.49 1.99-7 5c1.51 3.02 4.08 5.01 7 5.01s5.49-1.99 7-5.01z" fill="#94c1ff"/><g fill="#116fff"><path d="m63 63.5h-62c-.553 0-1-.447-1-1v-27c0-.553.447-1 1-1h62c.553 0 1 .447 1 1v27c0 .553-.447 1-1 1zm-61-2h60v-25h-60z"/><path d="m9 44.5h-3c-.553 0-1-.447-1-1v-3c0-.553.447-1 1-1h3c.553 0 1 .447 1 1v3c0 .553-.447 1-1 1zm-2-2h1v-1h-1z"/><path d="m16 44.5h-3c-.553 0-1-.447-1-1v-3c0-.553.447-1 1-1h3c.553 0 1 .447 1 1v3c0 .553-.447 1-1 1zm-2-2h1v-1h-1z"/><path d="m23 44.5h-3c-.553 0-1-.447-1-1v-3c0-.553.447-1 1-1h3c.553 0 1 .447 1 1v3c0 .553-.447 1-1 1zm-2-2h1v-1h-1z"/><path d="m30 44.5h-3c-.553 0-1-.447-1-1v-3c0-.553.447-1 1-1h3c.553 0 1 .447 1 1v3c0 .553-.447 1-1 1zm-2-2h1v-1h-1z"/><path d="m37 44.5h-3c-.553 0-1-.447-1-1v-3c0-.553.447-1 1-1h3c.553 0 1 .447 1 1v3c0 .553-.447 1-1 1zm-2-2h1v-1h-1z"/><path d="m44 44.5h-3c-.553 0-1-.447-1-1v-3c0-.553.447-1 1-1h3c.553 0 1 .447 1 1v3c0 .553-.447 1-1 1zm-2-2h1v-1h-1z"/><path d="m51 44.5h-3c-.553 0-1-.447-1-1v-3c0-.553.447-1 1-1h3c.553 0 1 .447 1 1v3c0 .553-.447 1-1 1zm-2-2h1v-1h-1z"/><path d="m16 51.5h-10c-.553 0-1-.447-1-1v-3c0-.553.447-1 1-1h10c.553 0 1 .447 1 1v3c0 .553-.447 1-1 1zm-9-2h8v-1h-8z"/><path d="m23 51.5h-3c-.553 0-1-.447-1-1v-3c0-.553.447-1 1-1h3c.553 0 1 .447 1 1v3c0 .553-.447 1-1 1zm-2-2h1v-1h-1z"/><path d="m30 51.5h-3c-.553 0-1-.447-1-1v-3c0-.553.447-1 1-1h3c.553 0 1 .447 1 1v3c0 .553-.447 1-1 1zm-2-2h1v-1h-1z"/><path d="m37 51.5h-3c-.553 0-1-.447-1-1v-3c0-.553.447-1 1-1h3c.553 0 1 .447 1 1v3c0 .553-.447 1-1 1zm-2-2h1v-1h-1z"/><path d="m44 51.5h-3c-.553 0-1-.447-1-1v-3c0-.553.447-1 1-1h3c.553 0 1 .447 1 1v3c0 .553-.447 1-1 1zm-2-2h1v-1h-1z"/><path d="m51 51.5h-3c-.553 0-1-.447-1-1v-3c0-.553.447-1 1-1h3c.553 0 1 .447 1 1v3c0 .553-.447 1-1 1zm-2-2h1v-1h-1z"/><path d="m58 51.5h-3c-.553 0-1-.447-1-1v-10c0-.553.447-1 1-1h3c.553 0 1 .447 1 1v10c0 .553-.447 1-1 1zm-2-2h1v-8h-1z"/><path d="m9 58.5h-3c-.553 0-1-.447-1-1v-3c0-.553.447-1 1-1h3c.553 0 1 .447 1 1v3c0 .553-.447 1-1 1zm-2-2h1v-1h-1z"/><path d="m16 58.5h-3c-.553 0-1-.447-1-1v-3c0-.553.447-1 1-1h3c.553 0 1 .447 1 1v3c0 .553-.447 1-1 1zm-2-2h1v-1h-1z"/><path d="m44 58.5h-24c-.553 0-1-.447-1-1v-3c0-.553.447-1 1-1h24c.553 0 1 .447 1 1v3c0 .553-.447 1-1 1zm-23-2h22v-1h-22z"/><path d="m51 58.5h-3c-.553 0-1-.447-1-1v-3c0-.553.447-1 1-1h3c.553 0 1 .447 1 1v3c0 .553-.447 1-1 1zm-2-2h1v-1h-1z"/><path d="m58 58.5h-3c-.553 0-1-.447-1-1v-3c0-.553.447-1 1-1h3c.553 0 1 .447 1 1v3c0 .553-.447 1-1 1zm-2-2h1v-1h-1z"/><path d="m32 29.504c-6.065 0-11-4.935-11-11s4.935-11 11-11 11 4.935 11 11-4.935 11-11 11zm0-20c-4.963 0-9 4.037-9 9s4.037 9 9 9 9-4.037 9-9-4.037-9-9-9z"/><path d="m32 24.508c-3.201 0-6.152-2.077-7.895-5.557-.141-.281-.141-.613 0-.895 1.743-3.479 4.694-5.556 7.895-5.556s6.152 2.077 7.895 5.557c.141.281.141.613 0 .895-1.743 3.479-4.694 5.556-7.895 5.556zm-5.869-6.004c1.409 2.517 3.574 4.004 5.869 4.004s4.46-1.487 5.869-4.004c-1.409-2.517-3.574-4.004-5.869-4.004s-4.46 1.487-5.869 4.004z"/><path d="m31.997 21.504c-1.654 0-3-1.346-3-3s1.346-3 3-3 3 1.346 3 3-1.346 3-3 3zm0-4c-.552 0-1 .448-1 1s.448 1 1 1 1-.448 1-1-.448-1-1-1z"/><path d="m32 36.5c-.553 0-1-.447-1-1 0-2.758 2.243-5.002 5.001-5.002.553 0 1 .447 1 1s-.447 1-1 1c-1.654 0-3.001 1.347-3.001 3.002 0 .553-.447 1-1 1z"/><path d="m53 32.5c-.553 0-1-.447-1-1s.447-1 1-1c1.654 0 3-1.346 3-3 0-.553.447-1 1-1s1 .447 1 1c0 2.757-2.243 5-5 5z"/><path d="m57 23.5c-.553 0-1-.447-1-1 0-1.654-1.346-3-3-3-.553 0-1-.447-1-1s.447-1 1-1c2.757 0 5 2.243 5 5 0 .553-.447 1-1 1z"/><path d="m53 32.5h-17c-.553 0-1-.447-1-1s.447-1 1-1h17c.553 0 1 .447 1 1s-.447 1-1 1z"/><path d="m57 28.5c-.553 0-1-.447-1-1v-5c0-.553.447-1 1-1s1 .447 1 1v5c0 .553-.447 1-1 1z"/><path d="m7.002 10.488c-.553 0-1-.447-1-1 0-2.757 2.243-5 5-5 .553 0 1 .447 1 1s-.447 1-1 1c-1.654 0-3 1.346-3 3 0 .553-.447 1-1 1z"/><path d="m28 6.5c-.553 0-1-.447-1-1s.447-1 1-1c1.654 0 3-1.346 3-3 0-.553.447-1 1-1s1 .447 1 1c0 2.757-2.243 5-5 5z"/><path d="m11.002 19.486c-2.757 0-5-2.243-5-5 0-.553.447-1 1-1s1 .447 1 1c0 1.654 1.346 3 3 3 .553 0 1 .447 1 1s-.447 1-1 1z"/><path d="m7.002 15.486c-.553 0-1-.447-1-1v-4.998c0-.553.447-1 1-1s1 .447 1 1v4.998c0 .553-.447 1-1 1z"/><path d="m53 19.5h-11c-.553 0-1-.447-1-1s.447-1 1-1h11c.553 0 1 .447 1 1s-.447 1-1 1z"/><path d="m22 19.504h-11c-.553 0-1-.447-1-1s.447-1 1-1h11c.553 0 1 .447 1 1s-.447 1-1 1z"/><path d="m28 6.488h-16.998c-.553 0-1-.447-1-1s.447-1 1-1h16.998c.553 0 1 .447 1 1s-.447 1-1 1z"/></g></svg>