<svg width="286" height="286" viewBox="0 0 286 286" fill="none" xmlns="http://www.w3.org/2000/svg">
<path opacity="0.05" d="M38 278H248C264.569 278 278 264.569 278 248V38C278 21.4315 264.569 8 248 8H38C21.4315 8 8 21.4315 8 38V248C8 264.569 21.4315 278 38 278ZM38 278L203 113L278 188M113 90.5C113 102.926 102.926 113 90.5 113C78.0736 113 68 102.926 68 90.5C68 78.0736 78.0736 68 90.5 68C102.926 68 113 78.0736 113 90.5Z" stroke="#111119" stroke-width="15" stroke-linecap="round" stroke-linejoin="round"/>
</svg>
